<?xml version="1.0" standalone="no"?>
<!DOCTYPE svg PUBLIC "-//W3C//DTD SVG 20010904//EN"
 "http://www.w3.org/TR/2001/REC-SVG-20010904/DTD/svg10.dtd">
<svg version="1.0" xmlns="http://www.w3.org/2000/svg"
 width="144.000000pt" height="144.000000pt" viewBox="0 0 144.000000 144.000000"
 preserveAspectRatio="xMidYMid meet">

<g transform="translate(0.000000,144.000000) scale(0.100000,-0.100000)"
fill="#000000" stroke="none">
<path d="M1202 1407 c-39 -15 -99 -70 -108 -101 -4 -11 -21 -37 -39 -57 -17
-19 -40 -50 -51 -67 l-18 -32 -436 0 c-394 0 -438 -2 -470 -18 -43 -21 -80
-75 -80 -116 1 -17 34 -139 74 -271 l73 -240 -34 -28 c-49 -42 -63 -76 -63
-157 l0 -70 90 0 90 0 0 -50 c0 -59 17 -97 60 -134 115 -96 290 -17 290 130
l0 54 70 0 70 0 0 -42 c0 -88 66 -168 152 -183 42 -8 99 8 141 38 37 28 69 98
66 144 -2 33 3 44 39 79 37 37 42 47 42 87 0 31 -11 71 -35 123 l-36 78 67
220 c83 276 79 266 121 266 59 0 112 39 147 107 35 70 5 173 -63 219 -44 29
-114 38 -159 21z m98 -147 c15 -28 2 -47 -61 -89 -74 -49 -93 -91 -178 -373
l-71 -238 40 -80 c58 -116 53 -136 -35 -142 l-50 -3 3 -77 c4 -73 3 -77 -22
-93 -24 -16 -28 -16 -49 -2 -13 9 -30 30 -36 49 -7 18 -22 54 -34 80 l-20 48
-170 0 -169 0 6 -63 c8 -68 -3 -111 -30 -121 -29 -11 -52 4 -72 47 -11 23 -29
63 -41 89 l-21 48 -75 0 c-85 0 -92 9 -51 57 l24 28 381 3 c289 2 381 6 381
15 0 7 -9 27 -20 44 l-20 33 -330 0 -330 0 -14 23 c-12 19 -122 377 -141 458
-5 21 -1 30 16 43 21 14 76 16 479 16 l456 0 22 45 c25 52 93 130 137 156 40
25 81 24 95 -1z"/>
<path d="M200 960 c0 -6 7 -37 17 -70 l16 -60 44 0 44 0 -3 68 -3 67 -57 3
c-36 2 -58 -1 -58 -8z"/>
<path d="M360 900 l0 -71 68 3 67 3 0 65 0 65 -67 3 -68 3 0 -71z"/>
<path d="M540 900 l0 -70 70 0 71 0 -3 68 -3 67 -67 3 -68 3 0 -71z"/>
<path d="M720 900 l0 -71 68 3 67 3 0 65 0 65 -67 3 -68 3 0 -71z"/>
<path d="M900 900 l0 -70 40 0 39 0 17 58 c9 31 19 63 21 70 4 9 -11 12 -56
12 l-61 0 0 -70z"/>
<path d="M263 733 c3 -5 12 -34 21 -65 9 -32 21 -58 26 -58 6 0 10 29 10 65
l0 65 -31 0 c-16 0 -28 -3 -26 -7z"/>
<path d="M360 675 l0 -65 70 0 70 0 0 65 0 65 -70 0 -70 0 0 -65z"/>
<path d="M540 675 l0 -65 70 0 70 0 0 65 0 65 -70 0 -70 0 0 -65z"/>
<path d="M720 675 l0 -65 70 0 70 0 0 65 0 65 -70 0 -70 0 0 -65z"/>
<path d="M900 675 c0 -36 4 -65 8 -65 4 0 14 21 21 48 7 26 15 55 18 65 4 13
-1 17 -21 17 -25 0 -26 -2 -26 -65z"/>
</g>
</svg>
